<?xml version="1.0" encoding="UTF-8" standalone="no"?>
<!DOCTYPE svg PUBLIC "-//W3C//DTD SVG 1.1//EN" "http://www.w3.org/Graphics/SVG/1.1/DTD/svg11.dtd">
<svg width="100%" height="100%" viewBox="0 0 5290 5384" version="1.1" xmlns="http://www.w3.org/2000/svg" xmlns:xlink="http://www.w3.org/1999/xlink" xml:space="preserve" xmlns:serif="http://www.serif.com/" style="fill-rule:evenodd;clip-rule:evenodd;stroke-linecap:round;stroke-linejoin:round;stroke-miterlimit:1.5;">
    <g transform="matrix(1,0,0,1,1836.27,2483.66)">
        <g transform="matrix(0.981596,0,0,1.0679,35.3361,-73.3355)">
            <g transform="matrix(1.88879,0,0,1.88879,-1253.69,-580.064)">
                <g transform="matrix(0.73359,0.489205,-0.511508,0.6836,535.984,-375.454)">
                    <g transform="matrix(0.965244,-0.287927,0.285588,0.950818,-83.8165,423.01)">
                        <path d="M2293.76,-366.529L455.827,1471.41" style="fill:none;stroke:rgb(74,134,215);stroke-width:0.86px;"/>
                    </g>
                    <g transform="matrix(0.965926,-0.258819,0.258819,0.965926,199.194,581.181)">
                        <path d="M2293.76,-366.529L455.827,1471.41" style="fill:none;stroke:rgb(74,134,215);stroke-width:0.86px;"/>
                    </g>
                    <g transform="matrix(0.899706,-0.433436,0.432062,0.903327,497.195,918.084)">
                        <path d="M2293.76,-366.529L455.827,1471.41" style="fill:none;stroke:rgb(74,134,215);stroke-width:0.86px;"/>
                    </g>
                    <g transform="matrix(0.956323,-0.338492,0.326676,0.930045,-300.784,234.843)">
                        <path d="M2293.76,-366.529L455.827,1471.41" style="fill:none;stroke:rgb(74,134,215);stroke-width:0.86px;"/>
                    </g>
                    <g transform="matrix(0.963835,-0.327692,0.303597,0.934303,-534.894,-87.2781)">
                        <path d="M2293.76,-366.529L455.827,1471.41" style="fill:none;stroke:rgb(74,134,215);stroke-width:0.86px;"/>
                    </g>
                </g>
                <g transform="matrix(-0.888041,0.105789,-0.131891,-0.830774,1778.48,840.025)">
                    <g transform="matrix(-1,0,0,1,2129.2,-1.95399e-14)">
                        <path d="M2293.76,-366.529L455.827,1471.41" style="fill:none;stroke:rgb(74,134,215);stroke-width:0.87px;"/>
                    </g>
                    <g transform="matrix(-0.965926,-0.258819,-0.258819,0.965926,1956.18,581.181)">
                        <path d="M2293.76,-366.529L455.827,1471.41" style="fill:none;stroke:rgb(74,134,215);stroke-width:0.88px;"/>
                    </g>
                    <g transform="matrix(-0.866025,-0.5,-0.5,0.866025,1638.63,1097.78)">
                        <path d="M2293.76,-366.529L455.827,1471.41" style="fill:none;stroke:rgb(74,134,215);stroke-width:0.88px;"/>
                    </g>
                    <g transform="matrix(-0.965926,0.258819,0.258819,0.965926,2145.91,-606.159)">
                        <path d="M2293.76,-366.529L455.827,1471.41" style="fill:none;stroke:rgb(74,134,215);stroke-width:0.87px;"/>
                    </g>
                    <g transform="matrix(-0.866025,0.5,0.5,0.866025,2005.16,-1195.99)">
                        <path d="M2293.76,-366.529L455.827,1471.41" style="fill:none;stroke:rgb(74,134,215);stroke-width:0.86px;"/>
                    </g>
                </g>
            </g>
        </g>
    </g>
</svg>
